<svg xmlns="http://www.w3.org/2000/svg" viewBox="2502 5008 6700 6700">
    <defs>
        <linearGradient id="g" x1="0.0856" y1="0.069" x2="0.9144" y2="0.931">
            <stop offset="0" stop-color="#0DBDED"/>
            <stop offset="1" stop-color="#9C1FED"/>
        </linearGradient>
    </defs>

    <!-- 白色圆角矩形背景 -->
    <rect x="2502" y="5008" width="6700" height="6700" rx="600" ry="600" fill="white"/>

    <!-- 原图标 -->
    <path fill="url(#g)" d="M7537 7943c-598,-343 -1655,-118 -1658,838 -271,-894 901,-1812 1980,-1388 570,224 915,688 1043,1209 296,1201 -675,1827 -1825,1770 -853,-42 -1249,-542 -1848,-882 -138,-79 -359,-189 -557,-206 -402,-34 -665,71 -895,214 310,-333 761,-523 1156,-510 728,24 1240,554 1991,581 1334,115 1309,-1226 612,-1626zm-2438 -1599c504,-275 1138,-257 1641,37 159,93 451,332 519,504 -142,-124 -431,-404 -1228,-277 -644,103 -1097,776 -1055,1372 -397,-38 -800,-64 -1139,284 -223,229 -394,577 -369,1003 22,376 280,698 545,845 158,87 328,140 521,165 244,32 668,-18 919,-151 -1089,638 -2339,225 -2650,-613 -318,-857 254,-1841 1255,-1925 116,-10 168,-15 231,-10 134,-657 313,-963 809,-1234z"/>
</svg>