<svg xmlns="http://www.w3.org/2000/svg" width="512" height="512"
     viewBox="0 0 512 512" fill="none">
    <path d="M362.34 234.141C324.97 212.705 258.916 226.767 258.728 286.513C241.793 230.641 315.033 173.27 382.462 199.768C418.083 213.767 439.643 242.766 447.642 275.326C466.139 350.384 405.459 389.506 333.594 385.944C280.288 383.319 255.541 352.071 218.108 330.823C209.484 325.885 195.674 319.011 183.3 317.948C158.178 315.824 141.743 322.386 127.37 331.323C146.742 310.511 174.926 298.637 199.611 299.45C245.105 300.949 277.101 334.072 324.032 335.76C407.397 342.947 405.834 259.14 362.277 234.141L362.34 234.141ZM209.984 134.21C241.48 117.024 281.1 118.149 312.534 136.522C322.47 142.335 340.718 157.271 344.967 168.02C336.093 160.271 318.033 142.772 268.227 150.709C227.982 157.146 199.673 199.206 202.298 236.453C177.488 234.079 152.304 232.454 131.119 254.202C117.183 268.514 106.497 290.263 108.059 316.886C109.434 340.384 125.557 360.508 142.118 369.695C151.992 375.132 162.615 378.445 174.676 380.007C189.924 382.007 216.421 378.882 232.106 370.57C164.053 410.443 85.9373 384.632 66.5022 332.26C46.6298 278.701 82.3752 217.205 144.93 211.955C152.179 211.33 155.429 211.018 159.366 211.33C167.74 170.27 178.926 151.146 209.922 134.21L209.984 134.21Z"
          fill="url(#linear_fill_jAZk9lqyiGGO3cP1dJ5WO)"/>
    <defs>
        <linearGradient id="linear_fill_jAZk9lqyiGGO3cP1dJ5WO" x1="94.38400268554688" y1="140.4921875"
                        x2="417.6159973144531" y2="371.5078125" gradientUnits="userSpaceOnUse">
            <stop offset="0" stop-color="#0DBDED"/>
            <stop offset="1" stop-color="#9C1FED"/>
        </linearGradient>
    </defs>
</svg>